# xmcd
#
# Track frame offsets:
#	182
#	15782
#	29732
#	45482
#	59712
#	75275
#	92195
#	110732
#	125767
#	139287
#	153810
#	169862
#	184237
#	196807
#	212735
#
# Disc length: 3013
#
# Revision: 1
# Processed by: cddbd v1.5.1PL0 Copyright (c) Steve Scherf et al.
# Submitted via: audiograbber 1.81.02
# Normalized: r0:DSETVAR1
#
DISCID=cd0bc30f
DTITLE=Various Artist - Hot #1 Country Hits
DYEAR=1992
DGENRE=Country
TTITLE0=Alabama - Down Home
TTITLE1=Mark Chestnutt - Brother Jukebox
TTITLE2=Tanya Tucker - Down To My Last Teardrop
TTITLE3=Clint Black - Where Are You Now
TTITLE4=Dolly Parton and Ricky Van Shelton - Rockin' Years
TTITLE5=George Strait - I've Come To Expect It From You
TTITLE6=Trisha Yearwood - She's In Love With The Boy
TTITLE7=Keith Whitley (Duet with Earl Thomas Conley) - Brotherly Love
TTITLE8=Brooks and Dunn - Brand New Man
TTITLE9=Pam Tillis - Don't Tell Me What To Do
TTITLE10=Doug Stone - I Thought It Was You
TTITLE11=Alan Jackson - I'd Love You All Over Again
TTITLE12=Joe Diffie - If The Devil Danced (In Empty Pockets)
TTITLE13=Paul Overstreet - Daddy's Come Round
TTITLE14=Hal Ketchum - Small Town Saturday Night
EXTD=
EXTT0=
EXTT1=
EXTT2=
EXTT3=
EXTT4=
EXTT5=
EXTT6=
EXTT7=
EXTT8=
EXTT9=
EXTT10=
EXTT11=
EXTT12=
EXTT13=
EXTT14=
PLAYORDER=
